<?xml version="1.0" encoding="UTF-8"?>
<svg width="279px" height="273px" viewBox="0 0 279 273" version="1.1" xmlns="http://www.w3.org/2000/svg" xmlns:xlink="http://www.w3.org/1999/xlink">
    <!-- Generator: Sketch 55.2 (78181) - https://sketchapp.com -->
    <title>karimpol logo_original</title>
    <desc>Created with Sketch.</desc>
    <defs>
        <polygon id="path-1" points="0.0626865672 0.0700804598 278.968806 0.0700804598 278.968806 273 0.0626865672 273"></polygon>
    </defs>
    <g id="Page-1" stroke="none" stroke-width="1" fill="none" fill-rule="evenodd">
        <g id="Artboard" transform="translate(-11.000000, -14.000000)">
            <g id="karimpol-logo_original" transform="translate(11.000000, 14.000000)">
                <g id="Group-3">
                    <mask id="mask-2" fill="white">
                        <use xlink:href="#path-1"></use>
                    </mask>
                    <g id="Clip-2"></g>
                    <path d="M247.384179,72.5018966 L265.382537,72.5018966 L265.382537,52.7161954 L247.384179,52.7161954 L247.384179,72.5018966 Z M199.746567,30.1021724 L185.978507,30.1021724 L185.978507,49.8889195 L167.980149,49.8889195 L167.980149,30.1021724 L181.746119,30.1021724 L181.746119,10.3164713 L199.746567,10.3164713 L199.746567,30.1021724 Z M157.746567,0.0700804598 L157.746567,8.68474713 L163.041493,8.68474713 L163.041493,29.7486322 L145.045224,29.7486322 L145.045224,14.9104023 L139.748209,14.9104023 L139.748209,0.0700804598 L126.381343,0.0700804598 L126.381343,72.5876667 L109.709851,72.5876667 L109.709851,0.0700804598 L97.1798507,0.0700804598 L97.1798507,36.7263448 L88.3556716,36.7263448 L88.3556716,61.6331494 L73.0058209,61.6331494 L73.0058209,30.3678506 L65.0665672,30.3678506 L65.0665672,15.1739885 L60.4789552,15.1739885 L60.4789552,0.0700804598 L48.3459701,0.0700804598 L48.3459701,15.2168736 L41.6416418,15.2168736 L41.6416418,30.1021724 L32.9532836,30.1021724 L32.9532836,72.5876667 L18.3086567,72.5876667 L18.3086567,0.0700804598 L0,0.0700804598 L0,273 L278.968806,273 L278.968806,0.0700804598 L157.746567,0.0700804598 Z" id="Fill-1" fill="#EEAD38" mask="url(#mask-2)"></path>
                </g>
                <path d="M13.3075597,137.358112 C13.3075597,132.313787 13.208518,131.545276 10.3894777,131.305954 L9.17491342,131.210019 C8.88404352,131.017117 8.98308524,130.146481 9.27291261,130 C11.6509566,130.097998 13.208518,130.120692 15.3832658,130.120692 C17.2661011,130.120692 18.9195766,130.097998 21.0067507,130 C21.3007482,130.146481 21.3977049,131.017117 21.1057924,131.210019 L20.182098,131.305954 C17.3641003,131.593759 17.2661011,132.313787 17.2661011,137.358112 L17.2661011,142.876954 C17.2661011,143.791947 17.3641003,144.704877 17.8978831,144.704877 C18.3357517,144.704877 18.9195766,144.415009 19.2594461,144.174656 C19.9402277,143.598014 21.2517486,142.398311 21.7365318,141.872216 L26.9857433,136.731956 C27.9094377,135.867509 30.2906092,133.420651 30.7774775,132.747042 C31.0214329,132.407659 31.117347,132.168338 31.117347,131.976468 C31.117347,131.782534 30.9213487,131.640179 30.2906092,131.497824 L28.9790883,131.210019 C28.6381763,130.870636 28.6861333,130.242416 29.0739598,130 C30.7774775,130.097998 32.7186953,130.120692 34.4211705,130.120692 C36.1236456,130.120692 37.772951,130.097998 39.2304281,130 C39.5692551,130.242416 39.6213823,130.920151 39.3315549,131.210019 C38.0669485,131.305954 36.1716026,131.782534 34.8121246,132.554141 C33.4484765,133.322652 30.730563,135.579704 28.0063943,138.124561 L23.6329202,142.206441 C22.9521387,142.876954 22.51427,143.314335 22.51427,143.693949 C22.51427,144.033332 22.8082675,144.415009 23.4369219,145.183521 C28.0553939,150.419716 31.7981286,154.742981 35.5867352,158.678379 C36.754385,159.829599 37.8198655,160.454724 39.4775112,160.651752 L40.7900747,160.794107 C41.1278591,161.033429 41.031945,161.85455 40.6879053,162 C39.4285116,161.905097 37.5352508,161.883434 35.2458231,161.883434 C33.2535206,161.883434 31.5552157,161.905097 29.3179153,162 C28.9790883,161.905097 28.8341746,161.076754 29.124002,160.794107 L30.2405671,160.6043 C30.9213487,160.504239 31.4092595,160.360852 31.4092595,160.121531 C31.4092595,159.829599 31.0704325,159.449985 30.730563,159.016731 C29.8026984,157.861384 28.5412196,156.567809 26.6938308,154.500564 L22.8082675,150.176268 C20.0340567,147.10119 19.2594461,146.145966 18.0938814,146.145966 C17.3641003,146.145966 17.2661011,146.767996 17.2661011,148.448406 L17.2661011,154.647046 C17.2661011,159.688276 17.3641003,160.360852 20.0851414,160.651752 L21.3977049,160.794107 C21.6906599,160.984946 21.5905756,161.85455 21.3007482,162 C18.9195766,161.905097 17.2661011,161.883434 15.3832658,161.883434 C13.4013887,161.883434 11.7499983,161.905097 9.7556107,162 C9.46578333,161.85455 9.3688267,161.126269 9.66073915,160.794107 L10.6344757,160.651752 C13.208518,160.262854 13.3075597,159.688276 13.3075597,154.647046" id="Fill-4" fill="#101416"></path>
                <path d="M64.5418372,157.195906 C64.9349272,158.36044 65.1818005,159.229931 65.1818005,159.761634 C65.1818005,160.247465 64.4899196,160.537295 63.4515686,160.63738 L62.0222466,160.781253 C61.6747169,161.023126 61.7255749,161.806085 62.1176054,162 C63.5511655,161.954128 65.4276142,161.882191 67.7988689,161.882191 C70.0217877,161.882191 71.7488409,161.904085 73.776804,162 C74.0236773,161.806085 74.1211551,161.023126 73.776804,160.781253 L72.4407217,160.63738 C70.3173999,160.395508 69.676377,159.667804 68.244936,155.498626 L61.4765826,135.973652 C60.7349033,133.832243 59.9444851,131.583452 59.3045218,129.441001 C59.2028058,129.095915 58.8595142,129 58.5628425,129 C58.020357,129.632831 57.1811999,130.512748 55.994513,130.855748 C56.1460275,131.634537 55.8472367,132.562411 55.1574749,134.315989 L50.1193534,147.480334 C48.0437109,152.881812 46.6610088,156.034499 45.7709936,158.263482 C45.0812319,160.006634 43.9952014,160.537295 42.8106336,160.63738 L41.1789392,160.781253 C40.8822675,161.023126 40.9818644,161.806085 41.2774766,162 C42.6093207,161.954128 44.389351,161.882191 46.0168073,161.882191 C48.3414422,161.930149 49.8714206,161.904085 51.1555853,162 C51.6016525,161.806085 51.6016525,161.023126 51.2541227,160.781253 L49.6234878,160.63738 C48.4378605,160.537295 48.1899277,160.247465 48.1899277,159.667804 C48.1899277,159.135058 48.5374574,157.825609 49.2770176,155.643541 L51.0072495,150.561084 C51.3547792,149.541465 51.6493318,149.39655 52.8836981,149.39655 L60.3418133,149.39655 C61.8251719,149.39655 62.0222466,149.541465 62.3676573,150.606957 L64.5418372,157.195906 Z M55.7010199,137.827315 C56.2413863,136.36461 56.7383114,135.19382 56.8855877,134.951948 L56.9830656,134.951948 C57.2786777,135.534736 57.7236853,136.851483 58.1178349,138.023315 L60.7878804,145.968629 C61.232888,147.288503 61.1311719,147.480334 59.7007904,147.480334 L53.6264369,147.480334 C52.2416157,147.480334 52.1928768,147.433419 52.5849073,146.309544 L55.7010199,137.827315 Z" id="Fill-5" fill="#101416"></path>
                <path d="M81.2858483,155.124893 C81.2858483,160.255167 81.1883237,160.888832 78.3850115,161.232462 L77.1752921,161.378531 C76.8847934,161.720059 76.9823179,162.454606 77.2707416,162.60698 C79.5470062,162.506098 81.2858483,162.47142 83.3058515,162.47142 C85.2283302,162.47142 86.8779477,162.506098 89.0577252,162.60698 C89.3502988,162.454606 89.4457484,161.62338 89.1542122,161.378531 L88.1385044,161.232462 C85.3248173,160.841544 85.2283302,160.255167 85.2283302,155.124893 L85.2283302,148.971086 C85.2283302,147.947553 85.3248173,147.897112 87.5087448,147.897112 C89.4457484,147.897112 90.2207574,148.384708 90.9501165,149.461835 C92.4513722,151.659173 94.4381756,155.031366 95.7008073,156.836735 C99.1380291,161.77155 101.60208,163 105.712636,163 C106.63082,163 107.405829,162.900169 107.843652,162.753049 C108.082276,162.556539 108.033513,162.159316 107.793852,162.060536 C106.48557,161.965959 105.274813,161.42687 104.454155,160.694424 C101.166332,157.91176 98.6026815,154.00363 94.7307492,147.700602 C94.4879753,147.311785 94.2462389,146.82629 94.4879753,146.531 C96.9094893,145.551603 100.535535,143.001178 100.535535,138.339585 C100.535535,134.906442 98.8444179,132.696494 96.523541,131.469095 C94.2950012,130.246951 91.4356643,130 88.4279656,130 C83.6897248,130 80.3666275,130.149221 77.6598023,130.391969 C77.2707416,130.588479 77.2707416,131.372417 77.6131151,131.619368 L79.1600205,131.813776 C81.1426739,132.058625 81.2858483,132.891953 81.2858483,137.552495 L81.2858483,155.124893 Z M85.2283302,133.086361 C85.2283302,131.716046 85.376692,131.517435 88.3792033,131.517435 C93.7638037,131.517435 96.1365553,135.196478 96.1365553,139.076235 C96.1365553,142.409547 95.0202104,144.128746 93.7119289,145.158584 C92.3061228,146.239913 90.4645688,146.433271 88.7174267,146.433271 C86.2461131,146.433271 85.5198664,146.336592 85.376692,146.188421 C85.2283302,145.990861 85.2283302,145.450721 85.2283302,144.572206 L85.2283302,133.086361 Z" id="Fill-6" fill="#101416"></path>
                <path d="M116.467677,137.451984 C116.467677,132.362271 116.368208,131.545276 113.425848,131.305954 L112.18088,131.210019 C111.881403,131.017117 111.980872,130.146481 112.281418,130 C114.775633,130.097998 116.467677,130.120692 118.549042,130.120692 C120.532007,130.120692 122.22833,130.097998 124.722544,130 C125.018812,130.146481 125.118282,131.017117 124.818805,131.210019 L123.572767,131.305954 C120.629337,131.545276 120.532007,132.362271 120.532007,137.451984 L120.532007,154.546984 C120.532007,159.639792 120.629337,160.311337 123.572767,160.651752 L124.818805,160.794107 C125.118282,160.984946 125.018812,161.85455 124.722544,162 C122.22833,161.905097 120.532007,161.883434 118.549042,161.883434 C116.467677,161.883434 114.775633,161.905097 112.281418,162 C111.980872,161.85455 111.881403,161.076754 112.18088,160.794107 L113.425848,160.651752 C116.368208,160.311337 116.467677,159.639792 116.467677,154.546984" id="Fill-7" fill="#101416"></path>
                <path d="M147.973352,149.413437 C149.105513,151.71471 150.19116,153.968609 151.369833,156.126711 L151.467087,156.126711 C152.794812,153.821227 154.024226,151.272562 155.258926,148.774428 L159.884821,139.415638 C162.148085,134.957316 163.528665,132.263374 163.626976,130 C165.302488,130.149488 166.338452,130.12317 167.321561,130.12317 C168.553089,130.12317 170.179975,130.10001 171.70855,130 C172,130.200019 172,131.037994 171.754005,131.234855 L170.724384,131.332759 C167.616493,131.673844 167.22325,132.554981 167.275048,135.987941 C167.36913,141.178964 167.421986,150.241937 167.816286,157.298402 C167.962167,159.74811 167.915654,161.020863 170.226487,161.268255 L171.806861,161.415638 C172.101793,161.710403 172.051052,162.448368 171.70855,162.644176 C169.689478,162.548378 167.66512,162.550483 165.894468,162.550483 C164.169271,162.550483 161.95252,162.548378 159.935562,162.644176 C159.588831,162.397837 159.541262,161.710403 159.837251,161.415638 L161.264344,161.268255 C163.677717,161.020863 163.677717,160.23763 163.677717,157.103646 L163.528665,136.674323 L163.426125,136.674323 C163.08468,137.209111 161.216774,141.128433 160.230495,143.040195 L155.848791,151.616805 C153.629926,155.927744 151.420574,160.534501 150.532606,162.792612 C150.434295,162.943152 150.237673,163 150.03788,163 C149.941683,163 149.693264,162.943152 149.59601,162.792612 C148.758782,160.189205 146.397208,155.388745 145.26399,152.988516 L140.835774,143.532874 C139.801924,141.278974 138.769132,138.731362 137.685598,136.474304 L137.588345,136.474304 C137.388552,139.5167 137.241614,142.354866 137.092562,145.197244 C136.948796,148.188056 136.752174,152.546368 136.752174,156.715188 C136.752174,160.339745 137.044992,161.121926 138.963639,161.268255 L140.835774,161.415638 C141.179333,161.710403 141.128592,162.497847 140.787147,162.644176 C139.113748,162.548378 137.194044,162.550483 135.304996,162.550483 C133.726737,162.550483 131.951856,162.548378 130.275286,162.644176 C129.980354,162.397837 129.884157,161.657766 130.178033,161.415638 L131.261566,161.268255 C133.332436,161.020863 134.020612,160.679778 134.317659,157.248923 C134.613649,154.018088 134.861011,151.323093 135.157001,146.468944 C135.404364,142.402239 135.6031,138.241841 135.704582,135.543688 C135.805007,132.457077 135.404364,131.819121 132.395841,131.332759 L131.608297,131.234855 C131.360934,130.939037 131.410618,130.200019 131.805976,130 C133.284867,130.10001 134.466711,130.12317 135.704582,130.12317 C136.84837,130.12317 138.176095,130.149488 139.801924,130 C139.603188,131.921236 140.835774,134.957316 142.361177,138.093406" id="Fill-8" fill="#101416"></path>
                <path d="M185.151436,154.647046 C185.151436,159.688276 185.247546,160.311337 188.349954,160.651752 L189.658298,160.794107 C189.946629,161.033429 189.848452,161.85455 189.558053,162 C186.79565,161.905097 185.198974,161.883434 183.285031,161.883434 C181.26981,161.883434 179.536719,161.905097 177.41712,162 C177.131889,161.85455 177.034745,161.076754 177.323076,160.794107 L178.332754,160.651752 C181.127194,160.262854 181.223305,159.688276 181.223305,154.647046 L181.223305,136.9197 C181.223305,132.834725 181.127194,131.972341 178.961089,131.778408 L177.224899,131.589633 C176.889029,131.299765 176.935534,130.577673 177.323076,130.384772 C179.877757,130.049515 182.85305,130 186.845255,130 C190.86743,130 193.869593,130.52919 196.143176,131.923858 C198.361987,133.316463 200,135.813868 200,139.130331 C200,143.548499 197.253098,145.758099 195.174837,146.76387 C193.043869,147.776861 190.478854,148.210116 188.491536,148.210116 C188.153599,148.062603 188.153599,147.341543 188.443998,147.244576 C193.674272,146.283163 195.563413,143.356629 195.563413,139.177783 C195.563413,134.517198 192.803076,131.489572 187.766056,131.489572 C185.198974,131.489572 185.151436,131.682473 185.151436,133.220528" id="Fill-9" fill="#101416"></path>
                <path d="M224.217622,163 C233.533317,163 241,155.778593 241,145.853108 C241,137.201741 235.369863,129 224.217622,129 C214.268278,129 207,136.515191 207,146.343801 C207,155.18576 213.498549,163 224.217622,163 M224.846079,161.477376 C215.334056,161.477376 211.85833,152.040478 211.85833,144.769581 C211.85833,134.006968 218.375577,130.521571 223.396994,130.521571 C232.61816,130.521571 236.142709,139.265601 236.142709,147.37152 C236.142709,157.05587 230.640341,161.477376 224.846079,161.477376" id="Fill-10" fill="#101416"></path>
                <path d="M250.517212,137.35503 C250.517212,132.313849 250.421977,131.543597 247.37963,131.304376 L246.1747,131.208481 C245.885889,131.01566 245.981124,130.145389 246.27097,130 C248.971712,130.096926 250.613482,130.119611 252.533711,130.119611 C254.403217,130.119611 256.043952,130.096926 258.455884,130 C258.74573,130.145389 258.840965,131.01566 258.554225,131.208481 L257.393806,131.304376 C254.549176,131.543597 254.448765,132.313849 254.448765,137.35503 L254.448765,154.071663 C254.448765,157.099053 254.592652,158.347748 255.46219,159.261326 C255.996335,159.789263 256.91349,160.367726 260.725998,160.367726 C264.825247,160.367726 265.841778,160.172843 266.610905,159.739769 C267.575678,159.1644 268.828226,157.436231 269.796104,154.985242 C270.088021,154.748083 271,154.93781 271,155.272926 C271,155.803957 269.653252,160.702842 268.975219,162 C266.514635,161.904105 261.929894,161.856673 256.956967,161.856673 L252.533711,161.856673 C250.517212,161.856673 248.971712,161.904105 246.27097,162 C245.981124,161.856673 245.885889,161.086421 246.1747,160.798737 L247.621859,160.653348 C250.421977,160.367726 250.517212,159.695431 250.517212,154.648063" id="Fill-11" fill="#101416"></path>
                <path d="M23.5625447,193.272267 C23.5625447,194.196043 23.6942003,194.753422 24.1033451,194.91638 C24.1691729,194.987999 24.1691729,195.12397 24.081065,195.193513 C23.8106648,195.193513 23.4025326,195.287966 22.9731331,195.403179 C21.7760805,195.727019 20.1506411,196 18.9343466,196 C16.2516121,196 13.7967428,195.239183 12.0639536,193.432112 C10.7129653,192.049562 10,190.21758 10,188.173857 C10,186.212131 10.6268829,184.224457 12.0193932,182.700746 C13.5273554,181.085696 15.7563847,180 19.1601865,180 C20.4443342,180 21.6383486,180.254298 22.0242005,180.344599 C22.4536001,180.438015 23.1523871,180.598897 23.4248128,180.550114 C23.4248128,181.311969 23.5625447,182.517029 23.764079,183.904768 C23.6942003,184.088485 23.2880936,184.110282 23.1523871,183.973273 C22.5194279,181.472851 20.8261352,180.690237 18.5292527,180.690237 C14.1603146,180.690237 12.2452331,183.880895 12.2452331,187.345572 C12.2452331,191.793188 14.4712242,195.287966 19.0032126,195.287966 C20.4007866,195.287966 21.2332546,194.987999 21.4813747,194.593578 C21.5958137,194.429582 21.7062018,194.013364 21.7062018,193.272267 L21.7062018,192.348492 C21.7062018,190.403373 21.6383486,190.267402 20.2428,190.105482 L19.2493071,189.988193 C19.0720785,189.89374 19.0913205,189.474408 19.2493071,189.403827 C19.9055593,189.450535 21.1410958,189.457801 22.4758803,189.457801 C23.3569596,189.457801 24.1235998,189.450535 24.8679599,189.403827 C25.027972,189.496205 25.0502522,189.850146 24.8922656,189.988193 L24.5307192,190.034901 C23.5838122,190.152189 23.5625447,190.797794 23.5625447,191.975868" id="Fill-12" fill="#101416"></path>
                <path d="M48.0761109,193.176087 C48.0761109,195.674292 48.0288367,195.983907 46.6694409,196.146695 L46.0853419,196.216917 C45.9445699,196.385025 45.9907935,196.740391 46.130515,196.808485 C47.2325291,196.765926 48.0761109,196.716984 49.0604647,196.716984 C49.9985949,196.716984 50.7949025,196.765926 51.8433391,196.808485 C51.9862123,196.740391 52.0313854,196.33821 51.8927144,196.216917 L51.4021133,196.146695 C50.043768,195.958372 49.9985949,195.674292 49.9985949,193.176087 L49.9985949,190.175688 C49.9985949,189.679878 50.043768,189.654342 51.0974573,189.654342 C52.0313854,189.654342 52.4043263,189.8948 52.7583575,190.41721 C53.4800769,191.487565 54.4392178,193.126081 55.0485297,194.004921 C56.7104804,196.409496 57.9007396,197 59.8925591,197 C60.3379871,197 60.713029,196.955313 60.9210355,196.880835 C61.0397463,196.789334 61.017685,196.599947 60.9010753,196.553132 C60.2665505,196.504189 59.681401,196.241388 59.2800956,195.884958 C57.690632,194.531587 56.4530986,192.63027 54.5799899,189.558585 C54.4644307,189.37239 54.34572,189.138316 54.4644307,188.99468 C55.6326287,188.520149 57.3880772,187.289134 57.3880772,185.032451 C57.3880772,183.372656 56.5697083,182.302301 55.4466835,181.711797 C54.3688318,181.118101 52.9915768,181 51.5407843,181 C49.2474604,181 47.6317334,181.069158 46.3196118,181.191515 C46.130515,181.281952 46.130515,181.663918 46.2975505,181.779891 L47.0444828,181.876712 C48.0057248,181.994813 48.0761109,182.40125 48.0761109,184.650485 L48.0761109,193.176087 Z M49.9985949,182.490624 C49.9985949,181.828834 50.0689809,181.733076 51.5176724,181.733076 C54.1135511,181.733076 55.2575867,183.514164 55.2575867,185.388882 C55.2575867,187.002926 54.7218125,187.83176 54.0893888,188.330762 C53.4117919,188.852108 52.523037,188.945737 51.6815563,188.945737 C50.4902465,188.945737 50.1383164,188.901051 50.0689809,188.829765 C49.9985949,188.735071 49.9985949,188.470142 49.9985949,188.046682 L49.9985949,182.490624 Z" id="Fill-13" fill="#101416"></path>
                <path d="M87.1022887,196 C91.5007032,196 95,192.604205 95,187.931482 C95,183.864002 92.3670886,180 87.1022887,180 C82.4051912,180 79,183.53906 79,188.161952 C79,192.324942 82.0410433,196 87.1022887,196 M87.3968802,195.287828 C82.9074287,195.287828 81.264672,190.844537 81.264672,187.423826 C81.264672,182.358682 84.3415164,180.715287 86.7115458,180.715287 C91.0649533,180.715287 92.7322593,184.830522 92.7322593,188.646769 C92.7322593,193.203218 90.1331032,195.287828 87.3968802,195.287828" id="Fill-14" fill="#101416"></path>
                <path d="M126.994245,186.98441 C126.994245,185.522658 126.947565,182.813714 126.563984,182.105562 C126.405681,181.824415 125.997745,181.659532 125.430491,181.609856 L124.863237,181.565464 C124.727258,181.396354 124.772922,181.096182 124.908901,181 C125.771452,181.046505 126.607619,181.068701 127.49148,181.068701 C128.441301,181.068701 129.05219,181.046505 129.868061,181 C130.047675,181.117321 130.02535,181.420663 129.911696,181.565464 L129.369811,181.609856 C128.802557,181.659532 128.350987,181.870921 128.239362,182.176377 C127.899416,182.95323 127.918696,185.665345 127.918696,186.98441 L127.918696,189.644735 C127.918696,191.695204 127.605134,193.865108 126.335662,195.27824 C125.361487,196.384859 123.686108,197 122.0087,197 C120.445961,197 118.882207,196.690316 117.772053,195.701017 C116.573615,194.662043 116.004331,192.946624 116.004331,190.139384 L116.004331,184.581979 C116.004331,182.130929 115.956637,181.728234 114.647589,181.609856 L114.08135,181.565464 C113.947401,181.471396 113.990021,181.070815 114.128029,181 C115.258478,181.046505 116.027671,181.068701 116.933857,181.068701 C117.862367,181.068701 118.611264,181.046505 119.721418,181 C119.855367,181.070815 119.902047,181.471396 119.765053,181.565464 L119.221139,181.609856 C117.908032,181.728234 117.862367,182.130929 117.862367,184.581979 L117.862367,189.667988 C117.862367,193.464526 118.995861,195.962082 122.460271,195.962082 C125.747098,195.962082 126.994245,193.274277 126.994245,189.691241" id="Fill-15" fill="#101416"></path>
                <path d="M155.91709,192.328417 C155.91709,194.847983 155.965752,195.163737 157.440107,195.334007 L158.063395,195.402977 C158.203169,195.524752 158.154507,195.929952 158.016804,196 C156.701894,195.955816 155.940903,195.932107 155.017361,195.932107 C154.046191,195.932107 153.216867,195.955816 152.200141,196 C152.062438,195.929952 152.016882,195.549539 152.154585,195.402977 L152.639135,195.334007 C153.978893,195.136795 154.023413,194.847983 154.023413,192.328417 L154.023413,183.46144 C154.023413,181.419277 153.978893,180.988213 152.942496,180.887991 L152.107994,180.789924 C151.947513,180.646595 151.96822,180.28558 152.154585,180.193979 C153.380454,180.019398 154.812359,180 156.726743,180 C158.641127,180 160.06682,180.265104 161.152915,180.960194 C162.215196,181.658517 163,182.907523 163,184.563885 C163,186.776318 161.684055,187.881996 160.691143,188.387418 C159.678559,188.891763 158.457868,189.10945 157.512583,189.10945 C157.348995,189.036169 157.348995,188.675153 157.488769,188.62127 C159.977779,188.143867 160.876473,186.680407 160.876473,184.589749 C160.876473,182.257695 159.562599,180.742507 157.163666,180.742507 C155.940903,180.742507 155.91709,180.839496 155.91709,181.610022" id="Fill-16" fill="#101416"></path>
                <path d="M233.101784,196 C237.498434,196 241,192.604205 241,187.931482 C241,183.864002 238.369989,180 233.101784,180 C228.40234,180 225,183.53906 225,188.161952 C225,192.324942 228.037146,196 233.101784,196 M233.397417,195.287828 C228.90461,195.287828 227.261748,190.844537 227.261748,187.423826 C227.261748,182.358682 230.344927,180.715287 232.714085,180.715287 C237.067771,180.715287 238.732114,184.830522 238.732114,188.646769 C238.732114,193.204256 236.134838,195.287828 233.397417,195.287828" id="Fill-17" fill="#101416"></path>
                <path d="M264.149697,186.855296 C264.149697,187.510336 264.226017,187.510336 264.94779,187.510336 L266.598492,187.510336 C267.592838,187.510336 268.366945,187.461854 268.660234,187.365969 C268.929536,187.266851 269.122518,187.145108 269.265346,186.519157 L269.485585,185.558144 C269.609878,185.410545 270.020918,185.410545 270.120135,185.558144 C270.120135,186.137769 270.025279,187.100936 270.025279,187.992997 C270.025279,188.854892 270.120135,189.77281 270.120135,190.32119 C270.020918,190.466635 269.657851,190.466635 269.485585,190.32119 L269.24463,189.387112 C269.141053,188.955087 268.929536,188.618948 268.467252,188.475658 C268.12381,188.38085 267.518698,188.357148 266.598492,188.357148 L264.94779,188.357148 C264.226017,188.357148 264.149697,188.38085 264.149697,189.002491 L264.149697,192.333715 C264.149697,194.850448 264.195489,195.211366 265.629223,195.334186 L266.454574,195.403138 C266.598492,195.499024 266.548339,195.929971 266.401149,196 C264.972867,195.955828 264.149697,195.932126 263.171705,195.932126 C262.104309,195.932126 261.281139,195.955828 260.135243,196 C259.990234,195.929971 259.942261,195.54966 260.08945,195.403138 L260.695653,195.334186 C262.104309,195.163962 262.153373,194.850448 262.153373,192.333715 L262.153373,183.681368 C262.153373,181.152784 262.104309,180.813413 260.695653,180.646421 L260.303147,180.601172 C260.1625,180.503131 260.210473,180.072184 260.355481,180 C261.373814,180.047404 262.203526,180.072184 263.171705,180.072184 L267.640811,180.072184 C269.191206,180.072184 270.605314,180.072184 270.92477,180 C270.92477,181.107535 270.949847,182.261397 271,183.173928 C270.92477,183.319372 270.584599,183.393711 270.415604,183.246111 C270.219351,182.167665 269.929333,181.298229 268.707116,180.959935 C268.173964,180.840347 267.37478,180.813413 266.355357,180.813413 L264.87256,180.813413 C264.149697,180.813413 264.149697,180.866204 264.149697,181.779813" id="Fill-18" fill="#101416"></path>
                <path d="M11.9808171,216.96757 C13.7136767,215.64963 15.922913,215 18.3921847,215 C19.6774423,215 21.4827709,215.256324 22.598579,215.556233 C22.8841918,215.627838 23.050444,215.672461 23.2635879,215.64963 C23.285968,216.183033 23.4063943,217.637956 23.5971581,219.04618 C23.4767318,219.209106 23.1197158,219.231937 22.9566607,219.093916 C22.598579,217.522766 21.5307282,215.718122 18.0863233,215.718122 C14.4468917,215.718122 11.3626998,217.962771 11.3626998,222.746789 C11.3626998,227.598262 14.521492,230.282916 18.4188277,230.282916 C21.4827709,230.282916 22.8362345,228.340252 23.3818828,226.976651 C23.548135,226.860423 23.9040853,226.906084 24,227.067972 C23.8348135,228.27176 23.2156306,229.796212 22.8596803,230.238293 C22.5730018,230.282916 22.2895204,230.374238 22.0262877,230.468673 C21.505151,230.653392 19.7946714,231 18.2738899,231 C16.1349911,231 14.0941385,230.583863 12.3612789,229.450642 C10.4642984,228.178363 9,226.072772 9,223.094435 C9,220.527046 10.1797513,218.330134 11.9808171,216.96757" id="Fill-19" fill="#101416"></path>
                <path d="M50.1017708,231 C54.4999041,231 58,227.598262 58,222.93566 C58,218.863536 55.3662341,215 50.1017708,215 C45.4049735,215 42,218.538721 42,223.162926 C42,227.324296 45.0398261,231 50.1017708,231 M50.3983891,230.282916 C45.9051333,230.282916 44.2675957,225.845505 44.2675957,222.42405 C44.2675957,217.360877 47.3452663,215.718122 49.7110529,215.718122 C54.0672505,215.718122 55.7303586,219.833831 55.7303586,223.646517 C55.7303586,228.203269 53.1334143,230.282916 50.3983891,230.282916" id="Fill-20" fill="#101416"></path>
                <path d="M84.5618305,224.415528 C85.0961333,225.537288 85.616736,226.630257 86.1805465,227.676308 L86.2237545,227.676308 C86.8571193,226.557747 87.440953,225.318694 88.0279483,224.110563 L90.231552,219.562746 C91.3096421,217.398134 91.9661917,216.08977 92.0125611,215 C92.8082191,215.071443 93.3035293,215.067178 93.7682778,215.067178 C94.3573809,215.067178 95.1319618,215.046918 95.8591193,215 C96.0003355,215.094902 96.0003355,215.494768 95.8844118,215.592869 L95.3922631,215.637654 C93.9105478,215.803999 93.7240161,216.233722 93.7472008,217.8993 C93.7935703,220.421126 93.8157012,224.821793 94.0064483,228.246784 C94.0760025,229.439987 94.0517639,230.055248 95.1540926,230.176808 L95.9097042,230.246118 C96.0488126,230.387937 96.0235202,230.745152 95.8591193,230.840053 C94.895899,230.789937 93.9347864,230.766478 93.0885436,230.766478 C92.2697009,230.766478 91.2158493,230.789937 90.2536829,230.840053 C90.089282,230.720626 90.0660973,230.387937 90.2083672,230.246118 L90.8881015,230.176808 C92.034692,230.055248 92.034692,229.676708 92.034692,228.154015 L91.9661917,218.231989 L91.920876,218.231989 C91.7543675,218.493236 90.8628091,220.394469 90.3927913,221.322159 L88.3103806,225.491436 C87.256529,227.582473 86.1974082,229.817461 85.7790291,230.909364 C85.7337135,230.97974 85.637813,231 85.5429663,231 C85.4976507,231 85.3806732,230.97974 85.3332499,230.909364 C84.934894,229.651116 83.8083267,227.323359 83.2698085,226.153615 L81.1599977,221.565278 C80.6699567,220.46911 80.1767542,219.232189 79.6624746,218.134955 L79.6129436,218.134955 C79.5202046,219.613929 79.4527581,220.990536 79.3821501,222.368211 C79.3104882,223.820526 79.2145877,225.939287 79.2145877,227.965278 C79.2145877,229.724692 79.3558038,230.103232 80.2726547,230.176808 L81.1599977,230.246118 C81.3265062,230.387937 81.3012138,230.770743 81.1410283,230.840053 C80.3422089,230.789937 79.4295734,230.766478 78.5285303,230.766478 C77.7750264,230.766478 76.9277298,230.789937 76.131018,230.840053 C75.9919096,230.720626 75.9444863,230.363412 76.0835947,230.246118 L76.6010358,230.176808 C77.5874409,230.055248 77.9162425,229.88997 78.0574587,228.225458 C78.1986748,226.653715 78.3145984,225.346418 78.4568684,222.990936 C78.5748998,221.018261 78.6708003,218.994402 78.7171697,217.683905 C78.7688085,216.188937 78.5748998,215.87864 77.1406078,215.637654 L76.7643828,215.592869 C76.6484591,215.447851 76.67059,215.094902 76.8602833,215 C77.5632023,215.046918 78.1280667,215.067178 78.7171697,215.067178 C79.2641187,215.067178 79.8974835,215.071443 80.6699567,215 C80.5761639,215.925558 81.1599977,217.398134 81.8903168,218.91976" id="Fill-21" fill="#101416"></path>
                <path d="M117.918398,227.324601 C117.918398,229.850293 117.966023,230.161694 119.442392,230.329787 L120.06462,230.403057 C120.204389,230.522661 120.156764,230.929962 120.016995,231 C118.702136,230.951512 117.943245,230.934272 117.016632,230.934272 C116.0455,230.934272 115.218278,230.951512 114.200557,231 C114.060788,230.929962 114.016269,230.547444 114.156038,230.403057 L114.639533,230.329787 C115.976134,230.135834 116.024794,229.850293 116.024794,227.324601 L116.024794,218.459896 C116.024794,216.419085 115.976134,215.98377 114.939776,215.892181 L114.107378,215.791973 C113.947938,215.648663 113.967609,215.287696 114.156038,215.191797 C115.378753,215.02155 116.810603,215 118.724914,215 C120.640259,215 122.069004,215.262913 123.152986,215.96222 C124.214191,216.660449 125,217.909287 125,219.565425 C125,221.777561 123.68307,222.87878 122.690197,223.388444 C121.675581,223.894875 120.457007,224.106068 119.508652,224.106068 C119.348177,224.034952 119.348177,223.673985 119.487946,223.627652 C121.977895,223.147081 122.876555,221.677352 122.876555,219.589131 C122.876555,217.257391 121.563766,215.746717 119.16389,215.746717 C117.943245,215.746717 117.918398,215.842616 117.918398,216.609805" id="Fill-22" fill="#101416"></path>
                <path d="M151.411269,228.671093 C151.602472,229.232441 151.726003,229.658474 151.726003,229.918533 C151.726003,230.152164 151.391934,230.294879 150.885996,230.342451 L150.191003,230.414338 C150.02558,230.531682 150.049212,230.905913 150.238267,231 C150.936482,230.975685 151.846311,230.935514 152.992458,230.935514 C154.073081,230.935514 154.909865,230.952428 155.890589,231 C156.013046,230.905913 156.058161,230.531682 155.890589,230.414338 L155.245009,230.342451 C154.214872,230.221936 153.902287,229.872019 153.21159,227.8444 L149.925681,218.368087 C149.570129,217.329964 149.185573,216.246383 148.875136,215.210373 C148.827872,215.0444 148.658152,215 148.515286,215 C148.255335,215.302346 147.844999,215.727321 147.270314,215.888008 C147.344433,216.26964 147.199419,216.715758 146.862127,217.569937 L144.42267,223.935051 C143.416165,226.569475 142.74373,228.10446 142.312985,229.186984 C141.978916,230.03482 141.453643,230.294879 140.875735,230.342451 L140.086215,230.414338 C139.942275,230.531682 139.991687,230.905913 140.137775,231 C140.78443,230.975685 141.643772,230.935514 142.432219,230.935514 C143.559031,230.954542 144.301288,230.952428 144.923236,231 C145.143443,230.905913 145.143443,230.531682 144.973723,230.414338 L144.183128,230.342451 C143.606295,230.294879 143.488135,230.152164 143.488135,229.872019 C143.488135,229.611959 143.653558,228.975553 144.013408,227.91523 L144.851266,225.437265 C145.020986,224.944632 145.163852,224.872745 145.758946,224.872745 L149.376777,224.872745 C150.096476,224.872745 150.191003,224.944632 150.361797,225.463693 L151.411269,228.671093 Z M147.1253,219.264552 C147.391696,218.559432 147.630164,217.993855 147.699985,217.875454 L147.750472,217.875454 C147.895486,218.158771 148.110321,218.793062 148.300451,219.360753 L149.59376,223.20773 C149.808596,223.840965 149.761332,223.935051 149.066339,223.935051 L146.118796,223.935051 C145.450658,223.935051 145.424877,223.911794 145.617155,223.370532 L147.1253,219.264552 Z" id="Fill-23" fill="#101416"></path>
                <path d="M186.931582,226.618393 C186.931582,227.325581 186.931582,230.131078 187.003244,230.741015 C186.956508,230.883721 186.816301,231 186.563927,231 C186.281436,230.600423 185.613634,229.775899 183.598803,227.442918 L178.232499,221.218816 C177.610394,220.488372 176.033841,218.55814 175.549867,218.039112 L175.502092,218.039112 C175.409659,218.320296 175.389926,218.861522 175.389926,219.570825 L175.389926,224.708245 C175.389926,225.816068 175.434585,228.878436 175.806394,229.586681 C175.966334,229.846723 176.40565,229.989429 176.984135,230.034884 L177.701789,230.108879 C177.837842,230.294926 177.81707,230.578224 177.655053,230.694503 C176.61648,230.649049 175.806394,230.638478 174.949572,230.638478 C173.974352,230.638478 173.35017,230.649049 172.540084,230.694503 C172.375989,230.578224 172.355218,230.250529 172.497502,230.108879 L173.119607,230.034884 C173.649279,229.989429 174.021088,229.823467 174.140524,229.562368 C174.461443,228.717759 174.44171,225.840381 174.44171,224.708245 L174.44171,217.894292 C174.44171,217.236786 174.415745,216.742072 173.930732,216.197674 C173.605659,215.871036 173.050023,215.701903 172.497502,215.632135 L172.101806,215.587738 C171.959522,215.443975 171.959522,215.09408 172.145426,215 C173.119607,215.070825 174.344084,215.066596 174.763667,215.066596 C175.134438,215.066596 175.525979,215.046512 175.830281,215 C176.288292,216.197674 179.045701,219.309725 179.784126,220.184989 L182.027443,222.752643 C183.598803,224.590909 184.756811,225.886892 185.843158,227.015856 L185.887817,227.015856 C185.979211,226.901691 185.979211,226.52537 185.979211,226.027484 L185.979211,220.985201 C185.979211,219.87315 185.960517,216.813953 185.520162,216.104651 C185.379955,215.891121 185.010223,215.751586 184.087971,215.632135 L183.69539,215.587738 C183.529219,215.443975 183.551029,215.070825 183.736933,215 C184.803547,215.046512 185.589746,215.066596 186.468379,215.066596 C187.466447,215.066596 188.069858,215.046512 188.851903,215 C189.039884,215.117336 189.039884,215.443975 188.902793,215.587738 L188.575642,215.632135 C187.832024,215.751586 187.371937,215.937632 187.279504,216.12685 C186.885885,216.976744 186.931582,219.899577 186.931582,220.985201" id="Fill-24" fill="#101416"></path>
                <path d="M209.058473,218.720154 C209.058473,216.175409 209.013171,215.766009 207.660273,215.644266 L207.081636,215.599017 C206.946758,215.503131 206.990001,215.072184 207.131057,215 C208.279064,215.047404 209.058473,215.067874 210.024241,215.067874 C210.944706,215.067874 211.722056,215.047404 212.870063,215 C213.010089,215.072184 213.054362,215.503131 212.915366,215.599017 L212.341877,215.644266 C210.987949,215.766009 210.944706,216.175409 210.944706,218.720154 L210.944706,227.277692 C210.944706,229.824591 210.987949,230.161807 212.341877,230.329877 L212.915366,230.403138 C213.054362,230.496869 213.010089,230.929971 212.870063,231 C211.722056,230.951518 210.944706,230.934281 210.024241,230.934281 C209.058473,230.934281 208.279064,230.951518 207.131057,231 C206.990001,230.929971 206.946758,230.547505 207.081636,230.403138 L207.660273,230.329877 C209.013171,230.161807 209.058473,229.824591 209.058473,227.277692" id="Fill-25" fill="#101416"></path>
                <path d="M233.35068,218.683523 C233.35068,216.175409 233.304672,215.816645 231.899813,215.646421 L231.516767,215.599017 C231.373392,215.503131 231.422611,215.072184 231.563845,215 C232.589938,215.047404 233.399898,215.072184 234.381052,215.072184 L238.873818,215.072184 C240.402792,215.072184 241.80872,215.072184 242.09868,215 C242.240984,215.408323 242.385429,217.138577 242.480656,218.198707 C242.385429,218.346307 241.999173,218.389401 241.882548,218.246111 C241.524111,217.115952 241.310119,216.271295 240.071104,215.955626 C239.566082,215.840347 238.79892,215.816645 237.749289,215.816645 L236.027722,215.816645 C235.314058,215.816645 235.314058,215.85974 235.314058,216.779813 L235.314058,221.596727 C235.314058,222.27116 235.386815,222.27116 236.102619,222.27116 L237.488218,222.27116 C238.490772,222.27116 239.236534,222.218369 239.516864,222.126793 C239.807894,222.027675 239.974807,221.88223 240.097853,221.285368 L240.287236,220.293112 C240.402792,220.149822 240.810447,220.149822 240.905673,220.320046 C240.905673,220.898593 240.806167,221.838058 240.806167,222.753821 C240.806167,223.618948 240.905673,224.529325 240.905673,225.057235 C240.810447,225.22315 240.402792,225.22315 240.287236,225.084169 L240.071104,224.144704 C239.974807,223.716989 239.807894,223.353916 239.326411,223.239714 C238.993653,223.139519 238.421224,223.119049 237.488218,223.119049 L236.102619,223.119049 C235.386815,223.119049 235.314058,223.139519 235.314058,223.764393 L235.314058,227.141943 C235.314058,228.410006 235.386815,229.227729 235.765582,229.632819 C236.055541,229.920477 236.554143,230.182277 238.658756,230.182277 C240.500158,230.182277 241.193493,230.090701 241.717774,229.824591 C242.145758,229.585415 242.789874,228.74399 243.409382,227.501784 C243.574156,227.381119 243.910123,227.451148 244,227.668777 C243.838436,228.505892 243.241398,230.352502 242.933249,231 C240.784768,230.951518 238.658756,230.929971 236.534883,230.929971 L234.381052,230.929971 C233.35068,230.929971 232.54286,230.951518 231.138001,231 C230.989276,230.929971 230.943268,230.547505 231.087713,230.403138 L231.875204,230.327722 C233.235124,230.207057 233.35068,229.850448 233.35068,227.33587" id="Fill-26" fill="#101416"></path>
                <path d="M265.154551,231 C263.242623,231 262.046015,230.398106 261.61662,230.14282 C261.344941,229.637437 261.047824,227.993644 261,226.907122 C261.118033,226.745233 261.458903,226.696459 261.547428,226.837592 C261.888298,228.017512 262.811193,230.282916 265.448615,230.282916 C267.36563,230.282916 268.2987,229.007524 268.2987,227.625243 C268.2987,226.605137 268.095195,225.477105 266.426456,224.386431 L264.265235,222.955377 C263.12866,222.19367 261.822159,220.872616 261.822159,218.977688 C261.822159,216.782851 263.488864,215 266.451894,215 C267.162125,215 267.980215,215.116228 268.572414,215.301985 C268.866478,215.370476 269.183946,215.444156 269.365065,215.444156 C269.56857,215.997276 269.77411,217.29031 269.77411,218.258529 C269.681515,218.402776 269.318259,218.47023 269.207349,218.330134 C268.913284,217.222856 268.2987,215.718122 266.111023,215.718122 C263.877558,215.718122 263.400339,217.222856 263.400339,218.282397 C263.400339,219.625243 264.49316,220.572707 265.33567,221.12894 L267.162125,222.283954 C268.592764,223.186795 270,224.524452 270,226.722402 C270,229.266961 268.117581,231 265.154551,231" id="Fill-27" fill="#101416"></path>
                <path d="M9,171 L271,171 M9,204.5433 L271,204.5433 M9,240 L271,240" id="Stroke-28" stroke="#101416" stroke-width="2.027"></path>
            </g>
        </g>
    </g>
</svg>